<svg width="46" height="46" viewBox="0 0 46 46" fill="none" xmlns="http://www.w3.org/2000/svg">
<path d="M40.7288 31.3554C39.0422 31.3554 38.2947 30.7037 37.2405 29.7837C36.0713 28.787 34.6147 27.522 31.8738 27.522C29.1138 27.522 27.6763 28.787 26.5071 29.7837C25.453 30.7037 24.6863 31.3554 22.9997 31.3554C21.3322 31.3554 20.5655 30.7037 19.5113 29.7837C18.3422 28.787 16.8855 27.522 14.1447 27.522C11.3847 27.522 9.92802 28.787 8.75885 29.7837C7.70469 30.7037 6.95717 31.3554 5.27051 31.3554C4.48467 31.3554 3.83301 32.007 3.83301 32.7929C3.83301 33.5979 4.48467 34.2304 5.27051 34.2304C8.03051 34.2304 9.46798 32.9845 10.6372 31.9687C11.6913 31.0487 12.458 30.397 14.1447 30.397C15.8314 30.397 16.5789 31.0487 17.633 31.9687C18.8022 32.9845 20.2588 34.2304 22.9997 34.2304C25.7597 34.2304 27.2163 32.9845 28.3855 31.9687C29.4397 31.0487 30.1872 30.397 31.8738 30.397C33.5413 30.397 34.308 31.0487 35.3622 31.9687C36.5314 32.9845 37.988 34.2304 40.7288 34.2304C41.5147 34.2304 42.1663 33.5979 42.1663 32.7929C42.1663 32.007 41.5147 31.3554 40.7288 31.3554Z" fill="black"/>
<path d="M40.7288 23.4603C39.0422 23.4603 38.2947 22.7895 37.2405 21.8887C36.0713 20.8728 34.6147 19.627 31.8738 19.627C29.1138 19.627 27.6763 20.8728 26.5071 21.8887C25.453 22.7895 24.6863 23.4603 22.9997 23.4603C21.3322 23.4603 20.5655 22.7895 19.5113 21.8887C18.3422 20.8728 16.8855 19.627 14.1447 19.627C11.3847 19.627 9.92802 20.8728 8.75885 21.8887C7.70469 22.7895 6.95717 23.4603 5.27051 23.4603C4.48467 23.4603 3.83301 24.0928 3.83301 24.8978C3.83301 25.6837 4.48467 26.3353 5.27051 26.3353C8.03051 26.3353 9.46798 25.0703 10.6372 24.0545C11.6913 23.1537 12.458 22.502 14.1447 22.502C15.8314 22.502 16.5789 23.1537 17.633 24.0545C18.8022 25.0703 20.2588 26.3353 22.9997 26.3353C25.7597 26.3353 27.2163 25.0703 28.3855 24.0545C29.4397 23.1537 30.1872 22.502 31.8738 22.502C33.5413 22.502 34.308 23.1537 35.3622 24.0545C36.5314 25.0703 37.988 26.3353 40.7288 26.3353C41.5147 26.3353 42.1663 25.6837 42.1663 24.8978C42.1663 24.0928 41.5147 23.4603 40.7288 23.4603Z" fill="black"/>
<path d="M5.27051 18.4762C8.03051 18.4762 9.46798 17.2112 10.6372 16.2146C11.6913 15.2946 12.458 14.6429 14.1447 14.6429C15.8313 14.6429 16.5789 15.2946 17.633 16.2146C18.8022 17.2112 20.2588 18.4762 22.9997 18.4762C25.7597 18.4762 27.2163 17.2112 28.3855 16.2146C29.4397 15.2946 30.1872 14.6429 31.8738 14.6429C33.5413 14.6429 34.308 15.2946 35.3622 16.2146C36.5314 17.2112 37.988 18.4762 40.7288 18.4762C41.5147 18.4762 42.1663 17.8246 42.1663 17.0387C42.1663 16.2337 41.5147 15.6012 40.7288 15.6012C39.0422 15.6012 38.2947 14.9496 37.2405 14.0296C36.0713 13.0137 34.6147 11.7679 31.8738 11.7679C29.1138 11.7679 27.6763 13.0137 26.5071 14.0296C25.453 14.9496 24.6863 15.6012 22.9997 15.6012C21.3322 15.6012 20.5655 14.9496 19.5113 14.0296C18.3422 13.0137 16.8855 11.7679 14.1447 11.7679C11.3847 11.7679 9.92802 13.0137 8.75885 14.0296C7.70469 14.9496 6.95717 15.6012 5.27051 15.6012C4.48467 15.6012 3.83301 16.2337 3.83301 17.0387C3.83301 17.8246 4.48467 18.4762 5.27051 18.4762Z" fill="black"/>
</svg>
